PathFileType	4	(X/Y/Z)	marker_experimental.trc																																																																																																																
DataRate	CameraRate	NumFrames	NumMarkers	Units	OrigDataRate	OrigDataStartFrame	OrigNumFrames																																																																																																												
200	200	9	38	mm	200	151	600																																																																																																												
Frame#	Time	C7			T10			CLAV			STRN			RBAK			LASI			RASI			SACR			LT1			LT2			LT3			LS1			LS2			LS3			LHEE			LTOE			RT1			RT2			RT3			RS1			RS2			RS3			RHEE			RTOE			LKNE			LKNM			LANK			LANM			RKNM			RKNE			RANM			RANK			LAJC			LKJC			RAJC			RKJC			RHJC			LHJC		
		X1	Y1	Z1	X2	Y2	Z2	X3	Y3	Z3	X4	Y4	Z4	X5	Y5	Z5	X6	Y6	Z6	X7	Y7	Z7	X8	Y8	Z8	X9	Y9	Z9	X10	Y10	Z10	X11	Y11	Z11	X12	Y12	Z12	X13	Y13	Z13	X14	Y14	Z14	X15	Y15	Z15	X16	Y16	Z16	X17	Y17	Z17	X18	Y18	Z18	X19	Y19	Z19	X20	Y20	Z20	X21	Y21	Z21	X22	Y22	Z22	X23	Y23	Z23	X24	Y24	Z24	X25	Y25	Z25	X26	Y26	Z26	X27	Y27	Z27	X28	Y28	Z28	X29	Y29	Z29	X30	Y30	Z30	X31	Y31	Z31	X32	Y32	Z32	X33	Y33	Z33	X34	Y34	Z34	X35	Y35	Z35	X36	Y36	Z36	X37	Y37	Z37	X38	Y38	Z38
																																																																																																																			
151	0.75	-403.619141	995.060791	795.191589	-397.936188	821.287109	759.524902	-407.318542	950.704102	910.633484	-405.695892	819.993286	950.718628	-491.030121	939.298462	764.902527	-296.131989	653.987244	893.266785	-511.106903	651.032104	890.627869	-401.200439	699.454468	741.509827	-233.346039	486.16922	880.574707	-228.11174	397.716827	837.649658	-238.238937	412.5177	980.220642	-222.400757	237.608871	862.032837	-210.201614	204.962494	744.203979	-239.213257	141.616516	869.978638	-282.506439	58.757282	713.078674	-275.194031	49.029423	852.906067	-556.374512	488.737579	861.882141	-538.879517	402.256622	823.130188	-563.307312	423.229492	960.643555	-550.715271	252.962799	893.766724	-570.760315	219.557907	776.781189	-537.173401	158.115463	901.442505	-494.938934	57.078144	733.202576	-492.57074	49.544502	875.738403	-235.65094	330.985321	901.040283	-330.633423	306.517365	932.053345	-252.384445	43.472115	754.924622	-319.716553	40.132504	760.879822	-435.531708	320.834381	936.904785	-540.340332	325.223633	912.622192	-455.372192	56.924881	782.71344	-528.081177	44.369766	780.17041	-286.050499	41.802309	757.902222	-283.142181	318.751343	916.546814	-491.726685	50.647323	781.441925	-487.93602	323.029007	924.763488	-480.231129	593.669174	822.986484	-323.750165	595.820231	824.90736
152	0.755	-403.578339	995.068481	795.200684	-397.891663	821.285522	759.5448	-407.280975	950.722351	910.636169	-405.66214	820.011047	950.746887	-490.978241	939.304504	764.899719	-296.100616	653.993774	893.266174	-511.074799	651.049744	890.650146	-401.180817	699.464844	741.529602	-233.336273	486.158356	880.555725	-228.092636	397.719513	837.638916	-238.217041	412.50882	980.215393	-222.387878	237.608047	862.025269	-210.197937	204.960205	744.202454	-239.205627	141.622772	869.977417	-282.50058	58.757744	713.082947	-275.194641	49.033302	852.902771	-556.345581	488.757507	861.922974	-538.854797	402.269073	823.138855	-563.280945	423.220093	960.655151	-550.687378	252.968872	893.784485	-570.768311	219.549026	776.807678	-537.127625	158.115509	901.470459	-494.936584	57.077564	733.209595	-492.560486	49.549057	875.744019	-235.646027	330.977203	901.028503	-330.627808	306.517822	932.058228	-252.387238	43.469093	754.926025	-319.718658	40.132473	760.875061	-435.494537	320.846069	936.893921	-540.322144	325.236603	912.626953	-455.364655	56.926025	782.699219	-528.085022	44.374962	780.172668	-286.052948	41.800783	757.900543	-283.136917	318.747512	916.543365	-491.724839	50.650493	781.435944	-487.908341	323.041336	924.760437	-480.209405	593.68541	823.007252	-323.728894	595.82838	824.911469
153	0.76	-403.536957	995.075989	795.210938	-397.84848	821.284973	759.565247	-407.246185	950.74292	910.638428	-405.625092	820.028259	950.773071	-490.929565	939.309204	764.898926	-296.068176	654.006836	893.266235	-511.036987	651.067505	890.676392	-401.162201	699.476318	741.548828	-233.318008	486.152435	880.535828	-228.08049	397.715607	837.631897	-238.187851	412.500092	980.203308	-222.376129	237.606766	862.016357	-210.189346	204.95903	744.195984	-239.191193	141.629501	869.975525	-282.494904	58.76062	713.083618	-275.19278	49.035427	852.901001	-556.312378	488.771515	861.951965	-538.831482	402.277893	823.146301	-563.25647	423.207397	960.668396	-550.659729	252.974045	893.799866	-570.775757	219.540573	776.830017	-537.083496	158.114777	901.495972	-494.934387	57.076958	733.216064	-492.550507	49.550629	875.749573	-235.638	330.968567	901.016235	-330.619873	306.521912	932.063538	-252.389069	43.46653	754.926025	-319.718384	40.129074	760.872437	-435.453827	320.853912	936.876465	-540.305908	325.244415	912.628845	-455.353607	56.930996	782.692993	-528.08667	44.379612	780.174683	-286.053727	41.797802	757.899231	-283.128937	318.74524	916.539886	-491.720139	50.655304	781.433838	-487.879868	323.049163	924.752655	-480.18206	593.702837	823.032575	-323.705068	595.842392	824.917736
154	0.765	-403.494659	995.083374	795.222351	-397.807312	821.285767	759.585754	-407.214081	950.764954	910.640747	-405.585938	820.045593	950.795349	-490.884003	939.313049	764.900757	-296.034943	654.025879	893.269287	-510.992859	651.086121	890.70697	-401.144196	699.489014	741.5672	-233.290924	486.152283	880.517944	-228.075104	397.706512	837.627563	-238.151779	412.492188	980.185852	-222.366119	237.604691	862.006287	-210.181061	204.958328	744.18457	-239.173676	141.632935	869.971619	-282.492859	58.76107	713.083069	-275.188385	49.035789	852.900818	-556.277405	488.779419	861.971802	-538.809631	402.283813	823.152039	-563.233643	423.193909	960.683777	-550.633057	252.978714	893.811523	-570.780457	219.532455	776.846863	-537.038391	158.121643	901.507507	-494.932465	57.077198	733.221375	-492.540436	49.550083	875.754517	-235.624374	330.959503	901.005554	-330.608826	306.529144	932.066895	-252.389816	43.464539	754.924561	-319.715027	40.122597	760.871643	-435.416901	320.854858	936.865234	-540.290405	325.246246	912.627441	-455.340363	56.936039	782.703186	-528.085693	44.382862	780.177124	-286.052422	41.793568	757.898102	-283.1166	318.744323	916.536225	-491.713028	50.659451	781.440155	-487.853653	323.050552	924.746337	-480.148358	593.722183	823.062969	-323.678535	595.862059	824.928103
155	0.77	-403.451416	995.090759	795.234314	-397.768402	821.288147	759.605957	-407.182556	950.788086	910.643555	-405.545898	820.064209	950.812988	-490.841125	939.316956	764.905212	-296.001831	654.048523	893.277466	-510.943298	651.105774	890.741028	-401.126343	699.502747	741.584656	-233.256195	486.15683	880.505249	-228.073822	397.695404	837.623108	-238.110428	412.485962	980.165405	-222.357391	237.602203	861.995605	-210.177444	204.954773	744.172485	-239.15657	141.630936	869.965393	-282.499359	58.753746	713.083557	-275.181427	49.035431	852.901672	-556.243713	488.782928	861.985596	-538.789734	402.288269	823.156494	-563.212891	423.182465	960.701538	-550.609009	252.982132	893.81842	-570.781555	219.52449	776.856995	-536.998657	158.132065	901.505615	-494.931091	57.078762	733.225403	-492.530579	49.548092	875.75824	-235.604706	330.950073	900.997925	-330.594513	306.538147	932.06604	-252.389481	43.46299	754.921997	-319.708405	40.113514	760.871887	-435.389038	320.848083	936.868835	-540.274475	325.242889	912.622742	-455.327362	56.934994	782.727539	-528.082214	44.384052	780.181152	-286.048943	41.788252	757.896942	-283.099609	318.74411	916.531983	-491.704788	50.659523	781.454346	-487.831757	323.045486	924.745789	-480.108929	593.743643	823.097533	-323.649945	595.885712	824.943843
156	0.775	-403.407471	995.098328	795.246216	-397.731598	821.291809	759.625244	-407.148621	950.811829	910.647827	-405.505859	820.085022	950.824829	-490.800049	939.321655	764.911926	-295.969849	654.071472	893.291809	-510.891052	651.123901	890.775085	-401.108368	699.517212	741.601196	-233.215042	486.164062	880.5	-228.072952	397.685394	837.615906	-238.065674	412.482147	980.143677	-222.348648	237.599945	861.984985	-210.173096	204.944275	744.166138	-239.142105	141.623962	869.957764	-282.517059	58.737179	713.086609	-275.171783	49.036018	852.902405	-556.213684	488.784851	861.996155	-538.772278	402.292969	823.160034	-563.195129	423.176086	960.720581	-550.589844	252.983078	893.821167	-570.779358	219.516617	776.859863	-536.97821	158.130585	901.511292	-494.930756	57.081341	733.228149	-492.521576	49.545353	875.760376	-235.580048	330.941742	900.993958	-330.577576	306.547028	932.060364	-252.388199	43.46172	754.918701	-319.698975	40.102726	760.872375	-435.371216	320.835693	936.887085	-540.257202	325.236633	912.615356	-455.317017	56.925224	782.752197	-528.077209	44.383022	780.187683	-286.043587	41.782223	757.895538	-283.078812	318.744385	916.527161	-491.697113	50.654123	781.46994	-487.814209	323.036163	924.751221	-480.065002	593.765258	823.1323	-323.619381	595.910857	824.964276
157	0.78	-403.363129	995.106506	795.257263	-397.696655	821.296448	759.643005	-407.110535	950.835022	910.654297	-405.466858	820.10791	950.831726	-490.759979	939.327576	764.920349	-295.939545	654.091797	893.311523	-510.83902	651.135254	890.805847	-401.090149	699.532288	741.616699	-233.168655	486.172058	880.50293	-228.069183	397.678528	837.604858	-238.019516	412.480408	980.122314	-222.338669	237.598083	861.975952	-210.158829	204.925339	744.167053	-239.131149	141.614319	869.949585	-282.542023	58.715664	713.091675	-275.159729	49.039101	852.901917	-556.188293	488.788086	862.005432	-538.757568	402.299072	823.162537	-563.181091	423.17804	960.736572	-550.577454	252.981033	893.820068	-570.774719	219.509247	776.856079	-536.977051	158.112274	901.532288	-494.931702	57.083942	733.229675	-492.513977	49.542656	875.760925	-235.552261	330.937317	900.992615	-330.559326	306.55423	932.050903	-252.386108	43.460674	754.915039	-319.688019	40.091702	760.872253	-435.361145	320.821991	936.912537	-540.23877	325.230438	912.605591	-455.310425	56.912933	782.761353	-528.07196	44.380028	780.196533	-286.037063	41.776188	757.893646	-283.055793	318.745774	916.521759	-491.691192	50.646481	781.478943	-487.799958	323.026215	924.759064	-480.017675	593.783243	823.162679	-323.586395	595.935392	824.98663
158	0.785	-403.318665	995.115479	795.26709	-397.663208	821.30127	759.658813	-407.068878	950.855042	910.662964	-405.430267	820.131287	950.838013	-490.720154	939.334778	764.929871	-295.910583	654.108032	893.333618	-510.788971	651.137878	890.831604	-401.071442	699.547852	741.631226	-233.119095	486.17923	880.512817	-228.060532	397.675964	837.591309	-237.974731	412.479004	980.103333	-222.32695	237.596085	861.969788	-210.133682	204.901443	744.171936	-239.123611	141.604813	869.941162	-282.56427	58.697083	713.095459	-275.146667	49.045078	852.899902	-556.167419	488.794281	862.014343	-538.745361	402.307343	823.163635	-563.17041	423.189148	960.744202	-550.571533	252.976822	893.813293	-570.768921	219.503311	776.847534	-536.981812	158.094223	901.543518	-494.933624	57.08535	733.230103	-492.508209	49.54063	875.760071	-235.524048	330.938904	900.991943	-330.541016	306.559601	932.040283	-252.383392	43.45993	754.911316	-319.677216	40.08223	760.871094	-435.355103	320.811249	936.934753	-540.220337	325.226959	912.593567	-455.309784	56.907455	782.749451	-528.0672	44.375599	780.206482	-286.030304	41.77108	757.891205	-283.032532	318.749253	916.516113	-491.688492	50.641527	781.477967	-487.78772	323.019104	924.76416	-479.968643	593.795931	823.186201	-323.551291	595.958008	825.007503
159	0.79	-403.274323	995.125366	795.275269	-397.630707	821.305664	759.672119	-407.02652	950.869629	910.672913	-405.397675	820.153503	950.848938	-490.680115	939.343018	764.940063	-295.882111	654.119995	893.353699	-510.742126	651.134705	890.852539	-401.052216	699.563965	741.644531	-233.069519	486.184448	880.526917	-228.046967	397.677429	837.577881	-237.934509	412.475616	980.088806	-222.313629	237.593231	861.967407	-210.107803	204.880676	744.176147	-239.118332	141.597488	869.932068	-282.574463	58.687134	713.094788	-275.135406	49.052521	852.897339	-556.149963	488.803284	862.022583	-538.735046	402.318054	823.162537	-563.161255	423.206238	960.740234	-550.567932	252.972107	893.798218	-570.763428	219.500076	776.835754	-536.98291	158.090027	901.524963	-494.936035	57.084789	733.229797	-492.504547	49.539513	875.758057	-235.498001	330.946869	900.989075	-330.523071	306.56485	932.032593	-252.380295	43.459618	754.907898	-319.668396	40.076103	760.868835	-435.350006	320.806061	936.945679	-540.203674	325.227509	912.579407	-455.312653	56.909325	782.72821	-528.063538	44.370445	780.215454	-286.024345	41.76786	757.888367	-283.010536	318.755859	916.510834	-491.688096	50.639885	781.471832	-487.77684	323.016785	924.762543	-479.921072	593.804788	823.202969	-323.51586	595.9779	825.023663
